<svg height="15" viewBox="0 0 21 15" width="21" xmlns="http://www.w3.org/2000/svg" xmlns:xlink="http://www.w3.org/1999/xlink"><defs><linearGradient id="a" x1="50%" x2="50%" y1="0%" y2="100%"><stop offset="0" stop-color="#fff"/><stop offset="1" stop-color="#f0f0f0"/></linearGradient><linearGradient id="b" x1="50%" x2="50%" y1="0%" y2="100%"><stop offset="0" stop-color="#05ab41"/><stop offset="1" stop-color="#019c39"/></linearGradient><linearGradient id="c" x1="50%" x2="50%" y1="0%" y2="100%"><stop offset="0" stop-color="#053087"/><stop offset="1" stop-color="#012877"/></linearGradient><circle id="d" cx="3.5" cy="3.5" r="3.5"/><mask id="e" fill="#fff"><use fill="#fff" fill-rule="evenodd" xlink:href="#d"/></mask></defs><g fill="none" fill-rule="evenodd"><path d="m0 0h21v15h-21z" fill="url(#a)"/><path d="m0 0h21v15h-21z" fill="url(#b)"/><path d="m2.42151632 7.77274586c-.23279703-.15063338-.22801145-.39795489 0-.54549172l7.65696738-4.95450828c.232797-.15063338.6150212-.14753683.8430326 0l7.6569674 4.95450828c.232797.15063338.2280114.39795489 0 .54549172l-7.6569674 4.95450824c-.232797.1506334-.6150212.1475369-.8430326 0z" fill="#fdd216"/><g transform="translate(7 4)"><use fill="url(#c)" xlink:href="#d"/><path d="m-.10038123 2.97376324c.26528238-.21482142 1.46290315-.03997524 3.53455642.51264777 1.47417657.39324336 3.17289487 1.26144799 3.56159291 1.74145002l.31466022.38857296.77714592-.62932045-.31466023-.38857296c-.55005967-.67926702-2.42115673-1.63557339-4.08099686-2.07834336-2.58595244-.68981467-3.75804237-.86093348-4.42161875-.32357995l-.38857299.31466018.62932038.77714598z" fill="#fff" fill-rule="nonzero" mask="url(#e)"/></g></g></svg>